<svg xmlns="http://www.w3.org/2000/svg" viewBox="0 0 512 512">
  <defs>
    <linearGradient id="g" x1="0" y1="0" x2="512" y2="512" gradientUnits="userSpaceOnUse">
      <stop offset="0" stop-color="#F59E0B"/>
      <stop offset="1" stop-color="#B45309"/>
    </linearGradient>
  </defs>
  <rect width="512" height="512" rx="112" fill="url(#g)"/>
  <g fill="none" stroke="#FFFFFF" stroke-width="14" stroke-linecap="round" stroke-linejoin="round">
    <path d="M124,178 L256,112 L388,178 Z"/>
    <line x1="108" y1="178" x2="404" y2="178"/>
    <line x1="150" y1="200" x2="150" y2="316"/>
    <line x1="196" y1="200" x2="196" y2="316"/>
    <line x1="316" y1="200" x2="316" y2="316"/>
    <line x1="362" y1="200" x2="362" y2="316"/>
    <path d="M286,224 Q286,206 256,206 Q226,206 226,234 Q226,258 256,258 Q286,258 286,284 Q286,312 256,312 Q226,312 226,294"/>
    <line x1="256" y1="194" x2="256" y2="324"/>
    <line x1="100" y1="316" x2="412" y2="316"/>
    <rect x="296" y="344" width="120" height="78" rx="12"/>
    <line x1="296" y1="372" x2="416" y2="372"/>
    <line x1="316" y1="398" x2="360" y2="398"/>
  </g>
</svg>
