<svg xmlns="http://www.w3.org/2000/svg" viewBox="0 0 512 512">
  <defs>
    <linearGradient id="g" x1="0" y1="0" x2="512" y2="512" gradientUnits="userSpaceOnUse">
      <stop offset="0" stop-color="#10B981"/>
      <stop offset="1" stop-color="#065F46"/>
    </linearGradient>
  </defs>
  <rect width="512" height="512" rx="112" fill="url(#g)"/>
  <g fill="none" stroke="#FFFFFF" stroke-width="14" stroke-linecap="round" stroke-linejoin="round">
    <path d="M120,300 L120,196 Q120,148 176,148 Q232,148 232,196 L232,300 Z"/>
    <rect x="142" y="176" width="68" height="52" rx="8"/>
    <line x1="120" y1="252" x2="232" y2="252"/>
    <circle cx="150" cy="276" r="9" fill="#FFFFFF" stroke="none"/>
    <circle cx="202" cy="276" r="9" fill="#FFFFFF" stroke="none"/>
    <path d="M138,300 L116,342"/>
    <path d="M214,300 L236,342"/>
    <path d="M252,300 L266,260 Q270,250 282,250 L312,250 L336,224 L374,224 Q386,224 393,250 L398,250 Q412,253 416,268 L420,300"/>
    <line x1="250" y1="300" x2="422" y2="300"/>
    <line x1="336" y1="226" x2="336" y2="250"/>
    <circle cx="296" cy="302" r="24"/>
    <circle cx="382" cy="302" r="24"/>
  </g>
</svg>
